<?xml version="1.0" encoding="UTF-8"?>
<!DOCTYPE svg PUBLIC "-//W3C//DTD SVG 1.1//EN" "http://www.w3.org/Graphics/SVG/1.1/DTD/svg11.dtd">
<svg xmlns="http://www.w3.org/2000/svg" version="1.1" width="2000px" height="1247px" style="shape-rendering:geometricPrecision; text-rendering:geometricPrecision; image-rendering:optimizeQuality; fill-rule:evenodd; clip-rule:evenodd" xmlns:xlink="http://www.w3.org/1999/xlink">
<g><path style="opacity:0.991" fill="#7f4ced" d="M 653.5,3.5 C 664.5,3.5 675.5,3.5 686.5,3.5C 686.5,36.8333 686.5,70.1667 686.5,103.5C 675.5,103.5 664.5,103.5 653.5,103.5C 653.5,70.1667 653.5,36.8333 653.5,3.5 Z"/></g>
<g><path style="opacity:0.97" fill="#7f4ced" d="M 785.5,3.5 C 796.5,3.5 807.5,3.5 818.5,3.5C 818.5,37.1667 818.5,70.8333 818.5,104.5C 807.5,104.5 796.5,104.5 785.5,104.5C 785.5,70.8333 785.5,37.1667 785.5,3.5 Z"/></g>
<g><path style="opacity:0.996" fill="#7f4ced" d="M 916.5,4.5 C 927.5,4.5 938.5,4.5 949.5,4.5C 949.5,37.8333 949.5,71.1667 949.5,104.5C 938.5,104.5 927.5,104.5 916.5,104.5C 916.5,71.1667 916.5,37.8333 916.5,4.5 Z"/></g>
<g><path style="opacity:0.242" fill="#7f4deb" d="M 1342.5,104.5 C 1342.5,71.5 1342.5,38.5 1342.5,5.5C 1331.83,5.5 1321.17,5.5 1310.5,5.5C 1310.5,38.5 1310.5,71.5 1310.5,104.5C 1309.5,71.3375 1309.17,38.0042 1309.5,4.5C 1320.83,4.5 1332.17,4.5 1343.5,4.5C 1343.83,38.0042 1343.5,71.3375 1342.5,104.5 Z"/></g>
<g><path style="opacity:0.995" fill="#804dee" d="M 1342.5,104.5 C 1331.83,104.5 1321.17,104.5 1310.5,104.5C 1310.5,71.5 1310.5,38.5 1310.5,5.5C 1321.17,5.5 1331.83,5.5 1342.5,5.5C 1342.5,38.5 1342.5,71.5 1342.5,104.5 Z"/></g>
<g><path style="opacity:0.998" fill="#804ced" d="M 1176.5,8.5 C 1187.5,8.5 1198.5,8.5 1209.5,8.5C 1209.5,41.8333 1209.5,75.1667 1209.5,108.5C 1198.5,108.5 1187.5,108.5 1176.5,108.5C 1176.5,75.1667 1176.5,41.8333 1176.5,8.5 Z"/></g>
<g><path style="opacity:0.994" fill="#7f4ced" d="M 1044.5,8.5 C 1055.5,8.5 1066.5,8.5 1077.5,8.5C 1077.5,41.8333 1077.5,75.1667 1077.5,108.5C 1066.5,108.5 1055.5,108.5 1044.5,108.5C 1044.5,75.1667 1044.5,41.8333 1044.5,8.5 Z"/></g>
<g><path style="opacity:0.994" fill="#804cee" d="M 628.5,120.5 C 656.167,120.5 683.833,120.5 711.5,120.5C 711.5,141.167 711.5,161.833 711.5,182.5C 727.833,182.5 744.167,182.5 760.5,182.5C 760.5,162.167 760.5,141.833 760.5,121.5C 788.167,121.5 815.833,121.5 843.5,121.5C 843.5,141.833 843.5,162.167 843.5,182.5C 859.5,182.5 875.5,182.5 891.5,182.5C 891.5,162.167 891.5,141.833 891.5,121.5C 919.167,121.5 946.833,121.5 974.5,121.5C 974.5,141.833 974.5,162.167 974.5,182.5C 989.5,182.5 1004.5,182.5 1019.5,182.5C 1019.5,163.5 1019.5,144.5 1019.5,125.5C 1047.17,125.5 1074.83,125.5 1102.5,125.5C 1102.5,144.5 1102.5,163.5 1102.5,182.5C 1118.83,182.5 1135.17,182.5 1151.5,182.5C 1151.5,163.5 1151.5,144.5 1151.5,125.5C 1179.17,125.5 1206.83,125.5 1234.5,125.5C 1234.5,144.5 1234.5,163.5 1234.5,182.5C 1251.17,182.5 1267.83,182.5 1284.5,182.5C 1284.5,162.167 1284.5,141.833 1284.5,121.5C 1312.17,121.5 1339.83,121.5 1367.5,121.5C 1367.5,141.833 1367.5,162.167 1367.5,182.5C 1402.87,181.255 1426.37,197.255 1438,230.5C 1440.18,240.71 1441.01,251.044 1440.5,261.5C 1459.83,261.5 1479.17,261.5 1498.5,261.5C 1498.5,289.167 1498.5,316.833 1498.5,344.5C 1479.17,344.5 1459.83,344.5 1440.5,344.5C 1440.5,360.833 1440.5,377.167 1440.5,393.5C 1459.83,393.5 1479.17,393.5 1498.5,393.5C 1498.5,421.167 1498.5,448.833 1498.5,476.5C 1479.17,476.5 1459.83,476.5 1440.5,476.5C 1440.5,492.5 1440.5,508.5 1440.5,524.5C 1459.83,524.5 1479.17,524.5 1498.5,524.5C 1498.5,552.167 1498.5,579.833 1498.5,607.5C 1479.17,607.5 1459.83,607.5 1440.5,607.5C 1440.5,622.5 1440.5,637.5 1440.5,652.5C 1458.5,652.5 1476.5,652.5 1494.5,652.5C 1494.5,680.167 1494.5,707.833 1494.5,735.5C 1476.5,735.5 1458.5,735.5 1440.5,735.5C 1440.5,751.833 1440.5,768.167 1440.5,784.5C 1458.5,784.5 1476.5,784.5 1494.5,784.5C 1494.5,812.167 1494.5,839.833 1494.5,867.5C 1476.5,867.5 1458.5,867.5 1440.5,867.5C 1440.5,884.5 1440.5,901.5 1440.5,918.5C 1459.83,918.5 1479.17,918.5 1498.5,918.5C 1498.5,946.167 1498.5,973.833 1498.5,1001.5C 1479.16,1001.17 1459.82,1001.5 1440.5,1002.5C 1433.61,1043.06 1409.61,1063.39 1368.5,1063.5C 1368.83,1084.08 1368.49,1104.58 1367.5,1125C 1340.17,1125.5 1312.84,1125.67 1285.5,1125.5C 1285.5,1104.83 1285.5,1084.17 1285.5,1063.5C 1269.17,1063.5 1252.83,1063.5 1236.5,1063.5C 1236.5,1083.83 1236.5,1104.17 1236.5,1124.5C 1208.83,1124.5 1181.17,1124.5 1153.5,1124.5C 1153.5,1104.17 1153.5,1083.83 1153.5,1063.5C 1137.17,1063.5 1120.83,1063.5 1104.5,1063.5C 1104.5,1083.83 1104.5,1104.17 1104.5,1124.5C 1076.83,1124.5 1049.17,1124.5 1021.5,1124.5C 1021.5,1104.17 1021.5,1083.83 1021.5,1063.5C 1006.5,1063.5 991.5,1063.5 976.5,1063.5C 976.5,1082.5 976.5,1101.5 976.5,1120.5C 948.833,1120.5 921.167,1120.5 893.5,1120.5C 893.5,1101.5 893.5,1082.5 893.5,1063.5C 877.5,1063.5 861.5,1063.5 845.5,1063.5C 845.5,1082.5 845.5,1101.5 845.5,1120.5C 817.833,1120.5 790.167,1120.5 762.5,1120.5C 762.5,1101.5 762.5,1082.5 762.5,1063.5C 745.5,1063.5 728.5,1063.5 711.5,1063.5C 711.5,1083.83 711.5,1104.17 711.5,1124.5C 683.833,1124.5 656.167,1124.5 628.5,1124.5C 628.5,1104.17 628.5,1083.83 628.5,1063.5C 588.2,1062.37 564.867,1041.87 558.5,1002C 539.17,1001.5 519.836,1001.33 500.5,1001.5C 500.5,973.833 500.5,946.167 500.5,918.5C 519.833,918.5 539.167,918.5 558.5,918.5C 558.5,902.167 558.5,885.833 558.5,869.5C 539.167,869.5 519.833,869.5 500.5,869.5C 500.5,841.833 500.5,814.167 500.5,786.5C 519.833,786.5 539.167,786.5 558.5,786.5C 558.5,770.167 558.5,753.833 558.5,737.5C 539.167,737.5 519.833,737.5 500.5,737.5C 500.5,709.833 500.5,682.167 500.5,654.5C 519.833,654.5 539.167,654.5 558.5,654.5C 558.5,639.5 558.5,624.5 558.5,609.5C 540.5,609.5 522.5,609.5 504.5,609.5C 504.5,581.833 504.5,554.167 504.5,526.5C 522.5,526.5 540.5,526.5 558.5,526.5C 558.5,510.5 558.5,494.5 558.5,478.5C 540.5,478.5 522.5,478.5 504.5,478.5C 504.5,450.833 504.5,423.167 504.5,395.5C 522.5,395.5 540.5,395.5 558.5,395.5C 558.5,378.5 558.5,361.5 558.5,344.5C 539.167,344.5 519.833,344.5 500.5,344.5C 500.5,316.833 500.5,289.167 500.5,261.5C 519.833,261.5 539.167,261.5 558.5,261.5C 555.307,220.002 573.641,193.835 613.5,183C 618.489,182.501 623.489,182.334 628.5,182.5C 628.5,161.833 628.5,141.167 628.5,120.5 Z M 909.5,195.5 C 958.548,192.568 1001.05,207.568 1037,240.5C 1077.45,204.917 1124.62,190.417 1178.5,197C 1246.22,209.384 1291.05,248.218 1313,313.5C 1318.6,332.779 1321.94,352.446 1323,372.5C 1323.5,438.166 1323.67,503.832 1323.5,569.5C 1347.21,573.376 1363.71,586.376 1373,608.5C 1374.41,612.057 1375.41,615.724 1376,619.5C 1376.67,631.833 1376.67,644.167 1376,656.5C 1368.57,686.096 1349.74,702.763 1319.5,706.5C 1319.67,761.834 1319.5,817.168 1319,872.5C 1313.7,902.586 1297.2,924.086 1269.5,937C 1263.95,939.072 1258.29,940.738 1252.5,942C 1205.19,943.46 1157.86,943.96 1110.5,943.5C 1110.97,976.549 1110.47,1009.55 1109,1042.5C 1106.92,1048.25 1103.09,1052.41 1097.5,1055C 1084.82,1056.98 1072.15,1056.98 1059.5,1055C 1054.33,1052.5 1050.5,1048.67 1048,1043.5C 1046.69,1010.55 1046.03,977.547 1046,944.5C 1035.67,963.167 1025.33,981.833 1015,1000.5C 1009.21,1007.03 1002.04,1009.2 993.5,1007C 989.726,1005.7 986.559,1003.53 984,1000.5C 973.667,981.833 963.333,963.167 953,944.5C 952.667,976.167 952.333,1007.83 952,1039.5C 949.941,1047.89 944.775,1053.39 936.5,1056C 926.167,1056.67 915.833,1056.67 905.5,1056C 896.228,1053.73 890.728,1047.89 889,1038.5C 888.5,1006.84 888.333,975.168 888.5,943.5C 841.14,943.96 793.807,943.46 746.5,942C 719.714,935.876 699.881,920.709 687,896.5C 683.654,888.794 681.32,880.794 680,872.5C 679.5,817.168 679.333,761.834 679.5,706.5C 649.261,702.763 630.427,686.096 623,656.5C 622.333,644.167 622.333,631.833 623,619.5C 627.829,597.341 640.662,581.841 661.5,573C 666.035,571.26 670.702,570.094 675.5,569.5C 675.5,493.833 675.5,418.167 675.5,342.5C 647.284,337.788 629.784,321.454 623,293.5C 622.333,281.167 622.333,268.833 623,256.5C 628.59,231.8 643.423,215.633 667.5,208C 672.123,207.042 676.79,206.375 681.5,206C 708.833,205.667 736.167,205.333 763.5,205C 775.727,203.968 787.894,202.468 800,200.5C 814.964,201.374 828.298,206.374 840,215.5C 862.024,204.431 885.19,197.765 909.5,195.5 Z"/></g>
<g><path style="opacity:0.989" fill="#804cee" d="M 917.5,255.5 C 968.089,255.629 1002.92,278.962 1022,325.5C 1026.87,341.193 1030.21,357.193 1032,373.5C 1038.23,347.112 1048.9,322.778 1064,300.5C 1091.48,265.883 1127.32,251.383 1171.5,257C 1208.48,263.983 1234.98,284.483 1251,318.5C 1256.96,333.617 1260.62,349.284 1262,365.5C 1263.28,451.489 1263.95,537.489 1264,623.5C 1265.26,626.428 1267.43,628.261 1270.5,629C 1285.83,629.5 1301.16,629.667 1316.5,629.5C 1316.5,635.167 1316.5,640.833 1316.5,646.5C 1263.5,646.5 1210.5,646.5 1157.5,646.5C 1157.5,640.833 1157.5,635.167 1157.5,629.5C 1168.84,629.667 1180.17,629.5 1191.5,629C 1194.57,628.261 1196.74,626.428 1198,623.5C 1198.67,535.5 1198.67,447.5 1198,359.5C 1192.97,309.117 1165.47,286.95 1115.5,293C 1103.79,296.687 1093.46,302.687 1084.5,311C 1067.3,329.877 1055.14,351.711 1048,376.5C 1038.01,411.79 1032.67,447.79 1032,484.5C 1031.33,530.167 1031.33,575.833 1032,621.5C 1033.17,625.333 1035.67,627.833 1039.5,629C 1054.83,629.5 1070.16,629.667 1085.5,629.5C 1085.5,635.167 1085.5,640.833 1085.5,646.5C 1032.5,646.5 979.5,646.5 926.5,646.5C 926.5,640.833 926.5,635.167 926.5,629.5C 937.505,629.667 948.505,629.5 959.5,629C 963.527,628.573 966.027,626.406 967,622.5C 967.667,536.833 967.667,451.167 967,365.5C 966.444,346.923 961.11,329.923 951,314.5C 931.75,293.475 908.25,286.642 880.5,294C 865.418,300.08 852.918,309.58 843,322.5C 823.942,350.99 811.942,382.323 807,416.5C 803.975,435.056 801.975,453.723 801,472.5C 800.333,522.833 800.333,573.167 801,623.5C 802.48,626.663 804.98,628.496 808.5,629C 819.495,629.5 830.495,629.667 841.5,629.5C 841.5,635.167 841.5,640.833 841.5,646.5C 788.5,646.5 735.5,646.5 682.5,646.5C 682.5,640.833 682.5,635.167 682.5,629.5C 697.837,629.667 713.17,629.5 728.5,629C 731.573,628.261 733.74,626.428 735,623.5C 735.667,512.167 735.667,400.833 735,289.5C 733.833,287 732,285.167 729.5,284C 713.837,283.5 698.17,283.333 682.5,283.5C 682.5,277.833 682.5,272.167 682.5,266.5C 705.502,266.667 728.502,266.5 751.5,266C 767.94,265.556 784.273,264.056 800.5,261.5C 800.333,297.835 800.5,334.168 801,370.5C 807.66,342.518 819.66,317.185 837,294.5C 858.489,270.338 885.322,257.338 917.5,255.5 Z"/></g>
<g><path style="opacity:0.986" fill="#7f4ced" d="M 383.5,286.5 C 416.833,286.5 450.167,286.5 483.5,286.5C 483.5,297.5 483.5,308.5 483.5,319.5C 450.167,319.5 416.833,319.5 383.5,319.5C 383.5,308.5 383.5,297.5 383.5,286.5 Z"/></g>
<g><path style="opacity:0.978" fill="#804cee" d="M 1515.5,286.5 C 1549.17,286.5 1582.83,286.5 1616.5,286.5C 1616.5,297.5 1616.5,308.5 1616.5,319.5C 1582.83,319.5 1549.17,319.5 1515.5,319.5C 1515.5,308.5 1515.5,297.5 1515.5,286.5 Z"/></g>
<g><path style="opacity:0.99" fill="#804ced" d="M 897.5,351.5 C 900.079,351.083 902.246,351.75 904,353.5C 905.943,360.689 906.943,368.022 907,375.5C 907.833,441.169 907.667,506.836 906.5,572.5C 898.033,575.898 890.366,580.565 883.5,586.5C 876.97,580.649 869.636,575.982 861.5,572.5C 860.133,536.49 860.3,500.49 862,464.5C 863.442,435.622 869.109,407.622 879,380.5C 883.181,369.449 889.348,359.782 897.5,351.5 Z"/></g>
<g><path style="opacity:0.984" fill="#804ced" d="M 1129.5,351.5 C 1131.5,351.5 1133.5,351.5 1135.5,351.5C 1136.65,356.095 1137.48,360.762 1138,365.5C 1138.83,434.502 1138.67,503.502 1137.5,572.5C 1131.84,574.993 1126.51,577.993 1121.5,581.5C 1112.54,574.957 1102.54,570.957 1091.5,569.5C 1091.33,537.156 1091.83,504.823 1093,472.5C 1094,440.504 1100,409.504 1111,379.5C 1115.47,368.863 1121.63,359.53 1129.5,351.5 Z"/></g>
<g><path style="opacity:0.978" fill="#7f4ced" d="M 1515.5,418.5 C 1548.83,418.5 1582.17,418.5 1615.5,418.5C 1615.5,429.5 1615.5,440.5 1615.5,451.5C 1582.17,451.5 1548.83,451.5 1515.5,451.5C 1515.5,440.5 1515.5,429.5 1515.5,418.5 Z"/></g>
<g><path style="opacity:0.973" fill="#804ded" d="M 387.5,420.5 C 421.167,420.5 454.833,420.5 488.5,420.5C 488.5,431.5 488.5,442.5 488.5,453.5C 454.833,453.5 421.167,453.5 387.5,453.5C 387.5,442.5 387.5,431.5 387.5,420.5 Z"/></g>
<g><path style="opacity:0.974" fill="#804cee" d="M 1515.5,549.5 C 1548.83,549.5 1582.17,549.5 1615.5,549.5C 1615.5,560.833 1615.5,572.167 1615.5,583.5C 1582.17,583.5 1548.83,583.5 1515.5,583.5C 1515.5,572.167 1515.5,560.833 1515.5,549.5 Z"/></g>
<g><path style="opacity:0.972" fill="#804ced" d="M 387.5,551.5 C 420.833,551.5 454.167,551.5 487.5,551.5C 487.5,562.833 487.5,574.167 487.5,585.5C 454.167,585.5 420.833,585.5 387.5,585.5C 387.5,574.167 387.5,562.833 387.5,551.5 Z"/></g>
<g><path style="opacity:0.991" fill="#7f4ced" d="M 1511.5,677.5 C 1544.83,677.5 1578.17,677.5 1611.5,677.5C 1611.5,688.5 1611.5,699.5 1611.5,710.5C 1578.17,710.5 1544.83,710.5 1511.5,710.5C 1511.5,699.5 1511.5,688.5 1511.5,677.5 Z"/></g>
<g><path style="opacity:0.996" fill="#7f4ced" d="M 383.5,679.5 C 416.833,679.5 450.167,679.5 483.5,679.5C 483.5,690.5 483.5,701.5 483.5,712.5C 450.167,712.5 416.833,712.5 383.5,712.5C 383.5,701.5 383.5,690.5 383.5,679.5 Z"/></g>
<g><path style="opacity:0.998" fill="#804ced" d="M 882.5,689.5 C 883.552,689.351 884.552,689.517 885.5,690C 894.759,698.795 905.759,704.129 918.5,706C 976.5,706.667 1034.5,706.667 1092.5,706C 1103.05,704.389 1112.72,700.556 1121.5,694.5C 1130.29,700.562 1139.96,704.395 1150.5,706C 1196.17,706.5 1241.83,706.667 1287.5,706.5C 1287.67,761.168 1287.5,815.834 1287,870.5C 1281.76,893.882 1267.26,907.382 1243.5,911C 1199.17,911.5 1154.83,911.667 1110.5,911.5C 1110.67,885.165 1110.5,858.831 1110,832.5C 1108.47,823.97 1103.64,818.137 1095.5,815C 1081.83,814.333 1068.17,814.333 1054.5,815C 1049.76,816.119 1045.93,818.619 1043,822.5C 1028.92,848.993 1014.59,875.327 1000,901.5C 985.491,875.819 971.491,849.819 958,823.5C 954.908,819.072 950.741,816.239 945.5,815C 931.833,814.333 918.167,814.333 904.5,815C 895.786,817.713 890.619,823.546 889,832.5C 888.5,858.831 888.333,885.165 888.5,911.5C 844.165,911.667 799.832,911.5 755.5,911C 731.743,907.382 717.243,893.882 712,870.5C 711.5,815.834 711.333,761.168 711.5,706.5C 757.168,706.667 802.835,706.5 848.5,706C 861.777,704.203 873.11,698.703 882.5,689.5 Z"/></g>
<g><path style="opacity:0.972" fill="#804ded" d="M 1510.5,809.5 C 1544.17,809.5 1577.83,809.5 1611.5,809.5C 1611.5,820.5 1611.5,831.5 1611.5,842.5C 1577.83,842.5 1544.17,842.5 1510.5,842.5C 1510.5,831.5 1510.5,820.5 1510.5,809.5 Z"/></g>
<g><path style="opacity:0.992" fill="#7f4ced" d="M 383.5,811.5 C 416.833,811.5 450.167,811.5 483.5,811.5C 483.5,822.5 483.5,833.5 483.5,844.5C 450.167,844.5 416.833,844.5 383.5,844.5C 383.5,833.5 383.5,822.5 383.5,811.5 Z"/></g>
<g><path style="opacity:0.987" fill="#804cee" d="M 908.5,833.5 C 919.748,833.179 930.915,833.513 942,834.5C 961.333,870.5 980.667,906.5 1000,942.5C 1019.33,906.5 1038.67,870.5 1058,834.5C 1068.75,833.513 1079.59,833.18 1090.5,833.5C 1090.5,901.5 1090.5,969.5 1090.5,1037.5C 1082.5,1037.5 1074.5,1037.5 1066.5,1037.5C 1066.67,980.499 1066.5,923.499 1066,866.5C 1044.6,907.647 1022.43,948.313 999.5,988.5C 976.571,948.313 954.404,907.647 933,866.5C 932.5,923.499 932.333,980.499 932.5,1037.5C 924.5,1037.5 916.5,1037.5 908.5,1037.5C 908.5,969.5 908.5,901.5 908.5,833.5 Z"/></g>
<g><path style="opacity:1" fill="#804dee" d="M 482.5,943.5 C 482.5,954.167 482.5,964.833 482.5,975.5C 449.329,975.168 416.329,975.502 383.5,976.5C 382.505,965.679 382.172,954.679 382.5,943.5C 415.833,943.5 449.167,943.5 482.5,943.5 Z"/></g>
<g><path style="opacity:0.294" fill="#7f4dec" d="M 482.5,943.5 C 483.495,954.321 483.828,965.321 483.5,976.5C 450.167,976.5 416.833,976.5 383.5,976.5C 416.329,975.502 449.329,975.168 482.5,975.5C 482.5,964.833 482.5,954.167 482.5,943.5 Z"/></g>
<g><path style="opacity:0.976" fill="#804cee" d="M 1515.5,942.5 C 1548.83,942.5 1582.17,942.5 1615.5,942.5C 1615.5,953.833 1615.5,965.167 1615.5,976.5C 1582.17,976.5 1548.83,976.5 1515.5,976.5C 1515.5,965.167 1515.5,953.833 1515.5,942.5 Z"/></g>
<g><path style="opacity:0.996" fill="#7f4ced" d="M 787.5,1137.5 C 798.5,1137.5 809.5,1137.5 820.5,1137.5C 820.5,1170.83 820.5,1204.17 820.5,1237.5C 809.5,1237.5 798.5,1237.5 787.5,1237.5C 787.5,1204.17 787.5,1170.83 787.5,1137.5 Z"/></g>
<g><path style="opacity:0.974" fill="#7f4ced" d="M 918.5,1137.5 C 929.5,1137.5 940.5,1137.5 951.5,1137.5C 951.5,1170.83 951.5,1204.17 951.5,1237.5C 940.5,1237.5 929.5,1237.5 918.5,1237.5C 918.5,1204.17 918.5,1170.83 918.5,1137.5 Z"/></g>
<g><path style="opacity:0.995" fill="#7f4ced" d="M 653.5,1141.5 C 664.5,1141.5 675.5,1141.5 686.5,1141.5C 686.5,1174.83 686.5,1208.17 686.5,1241.5C 675.5,1241.5 664.5,1241.5 653.5,1241.5C 653.5,1208.17 653.5,1174.83 653.5,1141.5 Z"/></g>
<g><path style="opacity:0.993" fill="#804ced" d="M 1046.5,1141.5 C 1057.5,1141.5 1068.5,1141.5 1079.5,1141.5C 1079.5,1175.17 1079.5,1208.83 1079.5,1242.5C 1068.5,1242.5 1057.5,1242.5 1046.5,1242.5C 1046.5,1208.83 1046.5,1175.17 1046.5,1141.5 Z"/></g>
<g><path style="opacity:0.973" fill="#7f4cee" d="M 1178.5,1141.5 C 1189.5,1141.5 1200.5,1141.5 1211.5,1141.5C 1211.5,1175.17 1211.5,1208.83 1211.5,1242.5C 1200.5,1242.5 1189.5,1242.5 1178.5,1242.5C 1178.5,1208.83 1178.5,1175.17 1178.5,1141.5 Z"/></g>
<g><path style="opacity:0.974" fill="#7f4ced" d="M 1309.5,1142.5 C 1320.83,1142.5 1332.17,1142.5 1343.5,1142.5C 1343.5,1175.83 1343.5,1209.17 1343.5,1242.5C 1332.17,1242.5 1320.83,1242.5 1309.5,1242.5C 1309.5,1209.17 1309.5,1175.83 1309.5,1142.5 Z"/></g>
</svg>
